<?xml version="1.0" encoding="utf-8"?>
<!-- Generator: Adobe Illustrator 22.0.1, SVG Export Plug-In . SVG Version: 6.00 Build 0)  -->
<svg version="1.1" id="Livello_1" xmlns="http://www.w3.org/2000/svg" xmlns:xlink="http://www.w3.org/1999/xlink" x="0px" y="0px"
	 viewBox="0 0 330 81" style="enable-background:new 0 0 330 81;" xml:space="preserve">
<style type="text/css">
	.st0{fill:#FFFFFF;stroke:#FFFFFF;stroke-width:3;stroke-miterlimit:10;}
	.st1{fill:#B079B3;}
	.st2{fill:#00B5E5;}
	.st3{fill:#6AC2BF;}
	.st4{fill:#6AB651;}
	.st5{fill:#FFD600;}
	.st6{fill:#F28E00;}
	.st7{fill:#E73B2B;}
	.st8{fill:#FFFFFF;}
	.st9{fill:#192A67;}
</style>
<g>
	<path class="st0" d="M85.7,34.7c-0.7-4.1-2-8.8-2.9-12.1c-0.5-1.7-0.8-3.1-1-3.8c-0.2-1.2,0-2.4,0.3-3.4c0.7,1.6,1.4,2.8,1.5,2.9
		c0.1,0.2,0.3,0.3,0.5,0.3c0.1,0,0.2,0,0.3-0.1c0.2-0.1,0.3-0.5,0.2-0.7c0,0-1-1.8-1.9-3.7c0.4-0.7,0.7-1.1,0.7-1.1c0,0,0,0,0,0
		c0,0,0,0,0,0c0,0,0-0.1,0.1-0.1c0,0,0,0,0-0.1c0,0,0-0.1,0-0.1c0,0,0,0,0,0c0-0.1,0-0.1,0-0.1c0,0,0,0,0,0c0,0,0,0,0,0c0,0,0,0,0,0
		c0,0-0.1-0.1-0.1-0.1c0,0,0,0,0,0c0,0-0.1-0.1-0.2-0.1c0,0,0,0,0,0c0,0-0.1,0-0.1,0c-0.4,0-0.7,0-1.1,0c-0.2-0.5-0.3-0.9-0.4-1.3
		c2-1,5-2.8,4.8-4c-0.1-0.5-0.6-0.8-1.4-0.9c-0.3,0-0.5-0.1-0.8-0.1c-0.4-1.6-1.3-3.7-1.3-3.8c-0.1-0.2-0.3-0.3-0.5-0.3
		c-0.2,0-0.4,0.2-0.5,0.4l-1.1,4c-1.4-4.3-1.8-4.4-2.4-4.3c-0.4,0.1-1,0.2-0.3,5.3c-2.9-0.8-3.3-0.6-3.5-0.1c-0.2,0.4-0.4,1,6,4
		c0.1,0.4,0.2,0.8,0.3,1.3c-10.5,0.1-11.1,1.6-12.3,10.5c-0.1,0.7-0.2,1.4-0.3,2.1c-2.6-0.9-12.6-3.9-26.9,0.1
		C24.2,29.7,18.9,38.4,18.5,39c-0.2,0.3-1,1.5-0.6,2.4c0,0.1,0.1,0.2,0.1,0.2C10.7,50.2,6.2,61.4,6.1,73.6h4.7h4.7h3.7h1h4.7h4.7
		h4.7h2.7c0,0,0,0.1,0,0.1c-2,4.4-1.7,5.2-1.2,5.6c0.2,0.1,0.3,0.2,0.5,0.2c0.6,0,1.3-0.5,1.9-1.1c2.3-2,3.8-3.5,4.9-4.7
		c-0.6,2.3-1,4.6-0.2,5.3c0.7,0.5,1.7-0.2,2-0.4c1.7-1.3,2.7-2.6,3.2-3.6c0.3,1.9,1,4.2,2.2,4.4c1.1,0.2,2-1.2,2.5-2.2
		c0.7-1.4,1.3-2.8,1.8-4.1c-0.3,2.5-0.4,4.9,0.3,5.6c0.2,0.3,0.5,0.4,0.8,0.4c0.9,0,2.1-2.3,3.3-4.9c-0.2,2.3-0.2,4.6,0.8,5.1
		c0.5,0.3,1.1,0.1,1.8-0.6c0.8-0.7,1.5-1.6,2.1-2.6c-0.1,1.3,0,2.3,0.7,2.8c1.2,0.9,3.5-0.2,7.3-3.7c0.6-0.5,1.2-1.1,1.7-1.7h2.8
		h4.7H86h4.7h1h3.7h4.7h4.7C104.9,57.7,97.3,43.7,85.7,34.7z"/>
	<g>
		<g>
			<path class="st1" d="M55.5,24.4c-27.2,0-49.3,22-49.4,49.2h4.7c0-24.6,20.1-44.7,44.7-44.7s44.7,20.1,44.7,44.7h4.7
				C104.8,46.4,82.7,24.4,55.5,24.4z"/>
			<path class="st2" d="M55.5,28.9c-24.6,0-44.7,20.1-44.7,44.7h4.7c0-22.1,17.9-40,40-40c22.1,0,40,17.9,40,40h4.7
				C100.2,48.9,80.2,28.9,55.5,28.9z"/>
			<path class="st3" d="M55.5,33.6c-22.1,0-40,17.9-40,40h3.7h1c0-19.4,15.8-35.2,35.2-35.2s35.2,15.8,35.2,35.2h1h3.7
				C95.5,51.5,77.6,33.6,55.5,33.6z"/>
			<path class="st4" d="M55.5,38.3c-19.4,0-35.2,15.8-35.2,35.2h4.7c0-16.8,13.7-30.5,30.5-30.5C72.3,43.1,86,56.8,86,73.6h4.7
				C90.8,54.1,75,38.3,55.5,38.3z"/>
			<path class="st5" d="M55.5,43.1c-16.8,0-30.5,13.7-30.5,30.5h4.7c0-14.2,11.5-25.7,25.7-25.7c14.2,0,25.7,11.5,25.7,25.7H86
				C86,56.8,72.3,43.1,55.5,43.1z"/>
			<path class="st6" d="M55.5,47.8c-14.2,0-25.7,11.5-25.7,25.7h4.7c0-11.6,9.4-21,21-21s21,9.4,21,21h4.7
				C81.3,59.4,69.7,47.8,55.5,47.8z"/>
			<path class="st7" d="M55.5,52.6c-11.6,0-21,9.4-21,21h4.7c0-9,7.3-16.2,16.2-16.2s16.2,7.3,16.2,16.2h4.7
				C76.5,62,67.1,52.6,55.5,52.6z"/>
		</g>
		<g>
			<path class="st8" d="M86,36.8c1.2,9.3-2.2,14.8-4.5,18.4c-0.3,0.4-0.5,0.8-0.7,1.2c0,1.4-0.3,11.1-8.8,18.8
				c-3.8,3.4-6,4.5-7.3,3.7c-0.7-0.5-0.8-1.6-0.7-2.8c-0.6,0.9-1.3,1.8-2.1,2.6c-0.7,0.7-1.3,0.8-1.8,0.6c-0.9-0.5-1-2.8-0.8-5.1
				C58.1,76.8,56.9,79,56,79c-0.3,0-0.6-0.1-0.8-0.4c-0.6-0.8-0.6-3.1-0.3-5.6c-0.5,1.3-1.1,2.7-1.8,4.1c-0.5,1.1-1.4,2.4-2.5,2.2
				c-1.2-0.2-1.9-2.5-2.2-4.4c-0.6,1-1.5,2.3-3.2,3.6c-0.3,0.2-1.3,1-2,0.4c-0.9-0.6-0.5-3,0.2-5.3c-1,1.2-2.6,2.7-4.9,4.7
				c-0.6,0.5-1.3,1.1-1.9,1.1c-0.2,0-0.4-0.1-0.5-0.2c-0.5-0.4-0.8-1.1,1.2-5.6c0.4-1,0.9-2,1.3-2.7c-1.5,0.8-3.8,1.6-6,1.1
				c-1.6-0.4-2.8-1.3-3.8-3c-0.1-0.2-0.1-0.4,0-0.5c0.1-0.2,0.3-0.3,0.5-0.2c0,0,3.6,0.1,8.1-2c3.8-1.8,9.1-5.5,13.2-13.4
				c-2.7,2-7.8,5.3-10.7,3.8c-1.3-0.6-1.9-2.1-1.9-4.4c-1.4,0.8-4.1,2-5.7,1c-0.9-0.6-1.2-1.7-1.1-3.4c-2.4,0.9-6.4,2.3-7.3,0.8
				c-0.5-0.8-0.3-2.2,4-6.5c-2.9,1.3-6,2.3-6.7,1.2c-0.4-0.6-0.3-1.7,2.7-4.9c-1.8,0.9-3.9,1.8-4.9,1.5c-0.7-0.2-0.9-0.6-1-0.8
				c-0.4-0.9,0.4-2.2,0.6-2.4c0.4-0.6,5.6-9.3,22.8-14.1c14.3-4,24.4-1,26.9-0.1c0.1-0.7,0.2-1.4,0.3-2.1
				c1.2-8.9,1.8-10.4,12.3-10.5c-0.1-0.5-0.3-0.9-0.3-1.3c-6.3-3-6.1-3.6-6-4c0.2-0.5,0.6-0.7,3.5,0.1c-0.7-5.1-0.1-5.2,0.3-5.3
				c0.5-0.1,1,0,2.4,4.3l1.1-4c0.1-0.2,0.2-0.4,0.5-0.4c0.2,0,0.4,0.1,0.5,0.3c0,0.1,0.9,2.2,1.3,3.8c0.2,0,0.5,0,0.8,0.1
				c0.9,0.1,1.3,0.4,1.4,0.9c0.2,1.3-2.8,3-4.8,4c0.1,0.4,0.2,0.9,0.4,1.3c0.4,0,0.7,0,1.1,0c0,0,0.1,0,0.1,0c0,0,0,0,0,0
				c0.1,0,0.1,0,0.2,0.1c0,0,0,0,0,0c0,0,0.1,0.1,0.1,0.1c0,0,0,0,0,0c0,0,0,0,0,0c0,0,0,0,0,0c0,0,0,0.1,0,0.1c0,0,0,0,0,0
				c0,0,0,0.1,0,0.1c0,0,0,0,0,0.1c0,0,0,0.1-0.1,0.1c0,0,0,0,0,0c0,0,0,0,0,0c0,0-0.3,0.4-0.7,1.1c0.9,1.9,1.8,3.7,1.9,3.7
				c0.1,0.2,0.1,0.6-0.2,0.7c-0.1,0-0.2,0.1-0.3,0.1c-0.2,0-0.4-0.1-0.5-0.3c-0.1-0.1-0.8-1.4-1.5-2.9c-0.3,1-0.5,2.1-0.3,3.4
				c0.1,0.7,0.5,2.1,1,3.8C83.9,26.4,85.5,32.4,86,36.8z"/>
			<path class="st8" d="M59.9,57.6c0,0-1.3,1.3-3.3,8.5"/>
			<g>
				<path class="st8" d="M36.5,79.3c-0.2,0-0.3-0.1-0.4-0.2c-0.5-0.4-0.6-1.3,1.2-5.4c0.4-0.8,0.8-1.8,1.3-2.7l0.2-0.3l-0.3,0.2
					c-1.1,0.6-2.8,1.3-4.6,1.3c-0.5,0-0.9,0-1.3-0.1c-1.6-0.3-2.8-1.3-3.7-2.9c-0.1-0.1-0.1-0.3,0-0.4c0.1-0.1,0.2-0.2,0.3-0.2
					l0.1,0c0.6,0,3.9-0.1,8-2c3.8-1.7,9.1-5.5,13.3-13.4l-0.2-0.1c-2.1,1.6-6,4.2-8.9,4.2c-0.6,0-1.1-0.1-1.6-0.3
					c-1.2-0.6-1.9-2.1-1.9-4.3l0-0.2l-0.2,0.1c-0.9,0.5-2.7,1.4-4.1,1.4c-0.6,0-1-0.1-1.4-0.4c-0.8-0.5-1.2-1.7-1-3.3l0-0.2
					l-0.2,0.1c-1.7,0.7-4,1.5-5.6,1.5c-0.8,0-1.3-0.2-1.6-0.6c-0.4-0.7-0.4-2,4-6.3l-0.1-0.2c-2.5,1.1-4.3,1.7-5.5,1.7
					c-0.6,0-0.9-0.1-1.1-0.4c-0.4-0.5-0.4-1.5,2.7-4.7l-0.1-0.2c-2,1-3.6,1.6-4.4,1.6c-0.1,0-0.2,0-0.3,0c-0.6-0.1-0.9-0.5-1-0.8
					c-0.3-0.9,0.4-2.1,0.6-2.3c0.2-0.4,5.5-9.2,22.7-14c4.8-1.4,9.7-2,14.3-2c6.5,0,10.9,1.3,12.5,1.9l0.1,0l0-0.1
					c0.1-0.7,0.2-1.4,0.3-2.1c1.2-8.8,1.7-10.3,12.2-10.4l0.2,0l0-0.1c-0.2-0.5-0.3-0.9-0.3-1.3l0-0.1l-0.1,0c-6.3-3-6-3.5-5.9-3.9
					c0.1-0.2,0.2-0.4,0.7-0.4c0.5,0,1.4,0.2,2.7,0.5l0.2,0l0-0.2c-0.7-5-0.1-5.1,0.2-5.1c0.1,0,0.1,0,0.2,0c0.4,0,0.9,0.7,2.1,4.3
					l0.1,0.4L81.9,2c0-0.2,0.2-0.3,0.4-0.3c0,0,0,0,0,0c0.2,0,0.3,0.1,0.4,0.2c0,0.1,0.9,2.2,1.3,3.8l0,0.1l0.1,0
					c0.2,0,0.5,0,0.8,0.1c0.8,0.1,1.2,0.4,1.3,0.8c0.1,0.9-1.6,2.3-4.8,3.9l-0.1,0l0,0.1c0.1,0.4,0.2,0.9,0.4,1.4l0,0.1
					c0,0,0.8,0,1.2,0c0,0,0.1,0,0.1,0c0.1,0,0.1,0,0.1,0.1c0.1,0,0.1,0.1,0.1,0.1l0,0l0,0c0,0,0,0.1,0,0.1c0,0.1,0,0.1,0,0.1l0,0
					c0,0,0,0.1,0,0.1l0,0c0,0,0,0,0,0c0,0-0.3,0.4-0.7,1.1l0,0l0,0.1c0.9,2,1.8,3.7,1.9,3.7c0.1,0.1,0.1,0.2,0,0.3
					c0,0.1-0.1,0.2-0.2,0.2c-0.1,0-0.1,0.1-0.2,0.1c-0.1,0-0.3-0.1-0.4-0.2c0,0-0.7-1.3-1.5-2.9l-0.1-0.3L82,15.4
					c-0.4,1.2-0.5,2.3-0.3,3.4c0.1,0.7,0.5,2.1,1,3.8c1.1,3.9,2.7,9.8,3.2,14.3c1.2,9.3-2.2,14.7-4.4,18.3c-0.3,0.4-0.5,0.9-0.7,1.2
					l0,0v0c0,1.1-0.2,11-8.8,18.7c-3,2.7-4.9,3.9-6.2,3.9c-0.3,0-0.6-0.1-0.9-0.3c-0.6-0.4-0.8-1.3-0.6-2.7L64,76
					c-0.7,1-1.4,1.9-2.1,2.6c-0.5,0.4-0.9,0.7-1.3,0.7c-0.2,0-0.3,0-0.4-0.1c-0.7-0.4-1-2.1-0.7-5l-0.2-0.1c-1.8,4-2.7,4.8-3.2,4.9
					c0,0,0,0,0,0c-0.3,0-0.5-0.1-0.7-0.3c-0.4-0.4-0.7-1.8-0.3-5.5L54.8,73c-0.6,1.4-1.2,2.8-1.8,4.1c-0.5,0.9-1.2,2.2-2.2,2.2
					c-0.1,0-0.1,0-0.2,0c-1.2-0.2-1.8-2.5-2.1-4.3l-0.1-0.3l-0.2,0.3c-0.7,1.2-1.8,2.4-3.2,3.5c-0.2,0.2-0.8,0.6-1.3,0.6
					c-0.2,0-0.4-0.1-0.5-0.2c-0.7-0.5-0.6-2.3,0.2-5.2l-0.2-0.1c-1.3,1.4-2.9,3-4.9,4.7C37.8,78.7,37.1,79.3,36.5,79.3z"/>
				<g>
					<path class="st9" d="M82.8,22.5c-0.5-1.7-0.8-3.1-1-3.8c-0.2-1.2,0-2.4,0.3-3.4c0.7,1.6,1.4,2.8,1.5,2.9
						c0.1,0.2,0.3,0.3,0.5,0.3c0.1,0,0.2,0,0.3-0.1c0.2-0.1,0.3-0.5,0.2-0.7c0,0-1-1.8-1.9-3.7c0.4-0.7,0.7-1.1,0.7-1.1c0,0,0,0,0,0
						c0,0,0,0,0,0c0,0,0-0.1,0.1-0.1c0,0,0,0,0-0.1c0,0,0-0.1,0-0.1c0,0,0,0,0,0c0-0.1,0-0.1,0-0.1c0,0,0,0,0,0c0,0,0,0,0,0
						c0,0,0,0,0,0c0,0-0.1-0.1-0.1-0.1c0,0,0,0,0,0c0,0-0.1-0.1-0.2-0.1c0,0,0,0,0,0c0,0-0.1,0-0.1,0c-0.4,0-0.7,0-1.1,0
						c-0.2-0.5-0.3-0.9-0.4-1.3c2-1,5-2.8,4.8-4c-0.1-0.5-0.6-0.8-1.4-0.9c-0.3,0-0.5-0.1-0.8-0.1c-0.4-1.6-1.3-3.7-1.3-3.8
						c-0.1-0.2-0.3-0.3-0.5-0.3c-0.2,0-0.4,0.2-0.5,0.4l-1.1,4c-1.4-4.3-1.8-4.4-2.4-4.3c-0.4,0.1-1,0.2-0.3,5.3
						c-2.9-0.8-3.3-0.6-3.5-0.1c-0.2,0.4-0.4,1,6,4c0.1,0.4,0.2,0.8,0.3,1.3c-10.5,0.1-11.1,1.6-12.3,10.5c-0.1,0.7-0.2,1.4-0.3,2.1
						c-2.6-0.9-12.6-3.9-26.9,0.1C24.2,29.7,18.9,38.4,18.5,39c-0.2,0.3-1,1.5-0.6,2.4c0.1,0.3,0.4,0.7,1,0.8c1,0.2,3-0.6,4.9-1.5
						c-3,3.2-3.1,4.2-2.7,4.9c0.8,1.1,3.9,0.1,6.7-1.2c-4.4,4.3-4.5,5.7-4,6.5c0.9,1.5,5,0.1,7.3-0.8c-0.2,1.7,0.2,2.8,1.1,3.4
						c1.6,1,4.3-0.2,5.7-1c0,2.2,0.7,3.7,1.9,4.4c2.9,1.4,7.9-1.8,10.7-3.8c-4.1,7.8-9.4,11.6-13.2,13.4c-4.5,2.1-8,2-8.1,2
						c-0.2,0-0.4,0.1-0.5,0.2c-0.1,0.2-0.1,0.4,0,0.5c0.9,1.6,2.2,2.6,3.8,3c2.2,0.5,4.5-0.4,6-1.1c-0.4,0.8-0.9,1.8-1.3,2.7
						c-2,4.4-1.7,5.2-1.2,5.6c0.2,0.1,0.3,0.2,0.5,0.2c0.6,0,1.3-0.5,1.9-1.1c2.3-2,3.8-3.5,4.9-4.7c-0.6,2.3-1,4.6-0.2,5.3
						c0.7,0.5,1.7-0.2,2-0.4c1.7-1.3,2.7-2.6,3.2-3.6c0.3,1.9,1,4.2,2.2,4.4c1.1,0.2,2-1.2,2.5-2.2c0.7-1.4,1.3-2.8,1.8-4.1
						c-0.3,2.5-0.4,4.9,0.3,5.6c0.2,0.3,0.5,0.4,0.8,0.4c0.9,0,2.1-2.3,3.3-4.9c-0.2,2.3-0.2,4.6,0.8,5.1c0.5,0.3,1.1,0.1,1.8-0.6
						c0.8-0.7,1.5-1.6,2.1-2.6c-0.1,1.3,0,2.3,0.7,2.8c1.2,0.9,3.5-0.2,7.3-3.7c8.5-7.7,8.8-17.4,8.8-18.8c0.2-0.4,0.5-0.8,0.7-1.2
						c2.2-3.6,5.6-9.1,4.5-18.4C85.5,32.4,83.9,26.4,82.8,22.5z M76.4,7.6c0.5,0.1,1.1,0.3,2.1,0.5c0.2,0,0.3,0,0.5-0.1
						c0.1-0.1,0.2-0.3,0.2-0.5c-0.2-1.4-0.4-2.9-0.4-4c0.3,0.8,0.8,2.1,1.5,4.3c0.1,0.2,0.3,0.4,0.5,0.4c0.2,0,0.4-0.2,0.5-0.4
						l1.2-4.1c0.2,0.6,0.5,1.3,0.6,2c-0.7,0.1-1.1,0.3-1.3,0.6c-0.2,0.4-0.1,0.9,0.2,1.1c0.1,0.1,0.2,0.1,0.3,0.2
						c0.1,0,1.1,0.3,1.7-0.3c0.1-0.1,0.3-0.3,0.3-0.6c0.2,0,0.4,0,0.6,0.1c0.3,0,0.4,0.1,0.5,0.1c-0.2,0.5-2.2,1.9-4.4,3
						C79.3,9.2,77.5,8.2,76.4,7.6z M80.7,54.6c-0.5-8.1-2.5-13.2-6-15.1c-2.3-1.3-4.9-0.8-6.3,0.1c-2.7,1.6-2.2,4-2.2,4.1
						c0.1,0.3,0.3,0.5,0.6,0.4c0.3-0.1,0.5-0.3,0.4-0.6c0,0-0.4-1.8,1.7-3c1.2-0.7,3.4-1.1,5.3-0.1c2.3,1.3,5.1,5.1,5.5,15.9
						c0,0,0,0,0,0c0,0.2,0.1,10.4-8.5,18.1c-4.5,4.1-5.7,3.8-6,3.6c-0.7-0.5-0.2-3.1,0.7-5.8c0.6-1.3,0.9-2.2,0.9-2.3
						c0.1-0.3-0.1-0.5-0.3-0.6c-0.3-0.1-0.5,0-0.7,0.3c-0.2,0.4-0.5,1.2-0.9,2.2c-0.8,1.8-2.1,4.4-3.9,6c-0.5,0.4-0.6,0.4-0.6,0.4
						C60,78,60.2,74.1,61,70.1c0.1-0.3-0.1-0.5-0.4-0.6c-0.3-0.1-0.5,0.1-0.6,0.3c-1.4,3.6-3.3,7.7-4,8.2c-0.6-0.6-0.1-5.9,1.2-11.7
						c0,0,0,0,0,0c1.8-6.7,3.1-8.2,3.1-8.2c0.2-0.2,0.2-0.5,0-0.7c-0.2-0.2-0.5-0.2-0.7,0c-0.1,0.1-1.4,1.5-3.2,7.9
						c0,0.1-0.1,0.1-0.1,0.2c0,0.1,0,0.2-0.1,0.3c-0.3,1.2-1.5,5.8-4.1,11c-0.7,1.4-1.2,1.7-1.4,1.7c-0.7-0.1-1.4-3.1-1.7-5.7
						c0-0.3-0.3-0.5-0.5-0.5c-0.3,0-0.5,0.2-0.5,0.5c0,0-0.1,2.3-3.6,5c-0.5,0.4-0.7,0.4-0.8,0.4c-0.4-0.4,0.2-3.6,1.4-6.9
						c0.1-0.3,0-0.5-0.3-0.6c-0.2-0.1-0.5,0-0.7,0.2c0,0-1.5,2.4-6.5,6.7c-0.6,0.5-0.9,0.7-1.1,0.8c0-1.1,1.8-5.1,3.6-8.5
						c0.1-0.2,0.1-0.5-0.1-0.6C40,69.1,39.9,69,39.8,69c-0.1,0-0.2,0-0.3,0.1c0,0-3.6,2.6-6.7,1.9c-1-0.2-1.9-0.8-2.6-1.7
						c3.1-0.2,13.3-2,20.4-14.3c0,0,0,0,0,0c3.6-5.3,4-12.8,4-13.2c0-0.3-0.2-0.5-0.5-0.5c-0.3,0-0.5,0.2-0.5,0.5c0,0.1-0.2,4.6-2,9
						c-2.3,1.9-8.6,6.4-11.3,5.1c-1-0.5-1.5-2-1.3-4.3c0-0.2-0.1-0.4-0.3-0.5c-0.2-0.1-0.4-0.1-0.5,0c-1,0.7-4.1,2.3-5.4,1.5
						c-0.8-0.5-0.7-2.1-0.5-3.3c0-0.2,0-0.4-0.2-0.5c-0.1-0.1-0.4-0.1-0.5-0.1c-3.2,1.4-6.5,2.1-6.9,1.6c-0.1-0.1-0.5-1.3,6.3-7.5
						c0.2-0.2,0.2-0.5,0.1-0.7c-0.1-0.2-0.4-0.3-0.7-0.2c-4,2-7.9,3.4-8.5,3c0-0.1-0.1-1.2,5.3-6.2c0.2-0.2,0.2-0.5,0.1-0.7
						c-0.2-0.2-0.5-0.3-0.7-0.1c-2.5,1.5-6.5,3.5-7.4,3.3c-0.3-0.1-0.3-0.2-0.3-0.2c-0.1-0.3,0.2-1.1,0.5-1.5c0,0,0,0,0,0
						c0,0,1.3-2.2,4.7-5c3.1-2.6,8.7-6.1,17.5-8.6c8.3-2.3,15.2-2.2,19.5-1.7c3.6,0.5,6.1,1.2,7,1.6c-0.4,1.7-2,8.1-6.2,12.2
						c-0.2,0.2-0.2,0.5,0,0.7c0.1,0.1,0.2,0.2,0.4,0.2c0.1,0,0.3,0,0.4-0.1c4.5-4.5,6.2-11.1,6.5-12.8c0,0,0-0.1,0-0.1l0,0
						c0,0,0-0.1,0-0.2c0-0.1,0-0.1,0-0.2c0,0,0,0,0,0c0-0.1,0-0.2,0-0.3c0.1-0.9,0.2-1.7,0.3-2.4c1.1-8.4,1.3-9.5,11.6-9.6
						c0,0,0,0,0,0.1c-0.6,0.5-1.4,1.1-1.9,1.8c-0.2,0.2-0.1,0.5,0.1,0.7c0.1,0.1,0.2,0.1,0.3,0.1c0.2,0,0.3-0.1,0.4-0.2
						c0.3-0.4,0.8-0.9,1.3-1.2c-0.5,1.2-0.9,2.8-0.6,4.6c0.2,0.8,0.5,2.1,1,3.9c1,3.9,2.6,9.7,3.2,14.1C86.1,45.8,83,50.9,80.7,54.6
						z"/>
					<path class="st9" d="M74.7,15.3c-0.6,0.1-0.9,0.5-1,0.7c-0.3,0.5-0.1,1.1-0.1,1.1c0,0.1,0.2,0.7,0.9,0.9c0.1,0,0.3,0.1,0.4,0.1
						c0.6,0,1.2-0.3,1.9-1c0.2-0.2,0.2-0.4,0.1-0.7C76.6,15.9,75.8,15,74.7,15.3z M74.8,17c-0.1,0-0.2-0.2-0.2-0.2
						c0,0-0.1-0.2,0-0.3c0.1-0.1,0.2-0.2,0.4-0.2c0,0,0.1,0,0.1,0c0.2,0,0.5,0.2,0.6,0.3C75.1,17,74.8,17,74.8,17z"/>
				</g>
			</g>
		</g>
	</g>
	<g>
		<g>
			<path class="st8" d="M128.1,72.7c-0.4-0.2-0.4-0.3-0.4-1c0-1.4,0.1-2.4,0.1-2.9c0-0.3,0.1-0.4,0.2-0.4c0.2,0,0.2,0.1,0.2,0.3
				c0,0.2,0,0.6,0.1,1c0.4,2,2.2,2.8,4,2.8c2.6,0,3.9-1.9,3.9-3.6c0-1.9-0.8-3-3.1-4.9l-1.2-1c-2.9-2.4-3.5-4-3.5-5.9
				c0-2.9,2.2-4.9,5.6-4.9c1.1,0,1.8,0.1,2.5,0.3c0.5,0.1,0.7,0.1,0.9,0.1c0.2,0,0.3,0.1,0.3,0.2s-0.1,1-0.1,2.9
				c0,0.4-0.1,0.6-0.2,0.6c-0.2,0-0.2-0.1-0.2-0.4c0-0.3-0.2-1.1-0.4-1.4c-0.2-0.3-0.9-1.4-3.4-1.4c-1.9,0-3.3,1.2-3.3,3.1
				c0,1.5,0.8,2.5,3.3,4.6l0.8,0.6c3.2,2.5,4,4.2,4,6.4c0,1.1-0.4,3.2-2.3,4.5c-1.2,0.8-2.6,1.1-4.1,1.1
				C130.5,73.4,129.2,73.3,128.1,72.7z"/>
			<path class="st8" d="M150,53.2c0.3-0.9,0.4-1.1,0.6-1.1s0.3,0.1,0.6,1c0.4,1,4.7,12.2,6.3,16.4c1,2.4,1.8,2.8,2.3,3
				c0.4,0.1,0.8,0.2,1.1,0.2c0.2,0,0.3,0,0.3,0.2c0,0.2-0.2,0.2-0.5,0.2c-0.4,0-2.4,0-4.3-0.1c-0.5,0-0.8,0-0.8-0.2
				c0-0.1,0.1-0.2,0.2-0.2c0.2-0.1,0.3-0.3,0.2-0.7l-2.5-6.7c-0.1-0.1-0.1-0.2-0.2-0.2h-5.8c-0.1,0-0.2,0.1-0.3,0.2l-1.6,4.8
				c-0.2,0.7-0.4,1.3-0.4,1.8c0,0.5,0.6,0.8,1,0.8h0.3c0.2,0,0.3,0.1,0.3,0.2c0,0.2-0.2,0.2-0.4,0.2c-0.7,0-1.8-0.1-2.1-0.1
				c-0.3,0-1.8,0.1-3.1,0.1c-0.4,0-0.5-0.1-0.5-0.2c0-0.1,0.1-0.2,0.2-0.2c0.2,0,0.6,0,0.8-0.1c1.2-0.2,1.8-1.2,2.3-2.6L150,53.2z
				 M152.8,64.1c0.1,0,0.1-0.1,0.1-0.2l-2.6-7.3c-0.1-0.4-0.3-0.4-0.4,0l-2.4,7.3c-0.1,0.1,0,0.2,0.1,0.2H152.8z"/>
			<path class="st8" d="M166.6,69.4c0.1,2.2,0.3,2.9,1.1,3.1c0.5,0.1,1.1,0.2,1.4,0.2c0.1,0,0.2,0.1,0.2,0.2c0,0.2-0.2,0.2-0.5,0.2
				c-1.5,0-2.6-0.1-2.9-0.1c-0.2,0-1.4,0.1-2.6,0.1c-0.3,0-0.4,0-0.4-0.2c0-0.1,0.1-0.2,0.2-0.2c0.2,0,0.7,0,1.1-0.2
				c0.7-0.2,0.8-1,0.8-3.4l0-15.5c0-1.1,0.1-1.4,0.3-1.4c0.2,0,0.7,0.6,0.9,0.9c0.4,0.5,4.5,4.8,8.6,9.3c2.7,2.9,5.6,6.2,6.5,7.1
				l-0.3-13.8c0-1.8-0.2-2.4-1.1-2.6c-0.5-0.1-1.1-0.1-1.3-0.1c-0.2,0-0.2-0.1-0.2-0.2c0-0.2,0.2-0.2,0.5-0.2c1.2,0,2.5,0.1,2.8,0.1
				c0.3,0,1.2-0.1,2.3-0.1c0.3,0,0.5,0,0.5,0.2c0,0.1-0.1,0.2-0.3,0.2c-0.1,0-0.3,0-0.7,0.1c-0.9,0.2-1,0.8-1,2.4l-0.1,15.9
				c0,1.8-0.1,1.9-0.2,1.9c-0.2,0-0.5-0.3-2-1.7c-0.3-0.3-4.2-4.3-7.1-7.4c-3.1-3.4-6.2-6.8-7.1-7.8L166.6,69.4z"/>
			<path class="st8" d="M197.4,65.2c0,2.6,0,4.7,0.1,5.9c0.1,0.8,0.2,1.4,1.1,1.5c0.4,0.1,1,0.1,1.2,0.1c0.2,0,0.2,0.1,0.2,0.2
				c0,0.1-0.1,0.2-0.4,0.2c-1.5,0-3.2-0.1-3.3-0.1c-0.1,0-1.8,0.1-2.7,0.1c-0.3,0-0.4-0.1-0.4-0.2c0-0.1,0.1-0.2,0.2-0.2
				c0.2,0,0.6-0.1,0.8-0.1c0.5-0.1,0.7-0.7,0.8-1.5c0.1-1.1,0.1-3.3,0.1-5.9V53.7l-3.2,0.1c-1.7,0-2.3,0.2-2.8,0.9
				c-0.3,0.5-0.4,0.7-0.5,0.8c-0.1,0.2-0.2,0.3-0.3,0.3c-0.1,0-0.1-0.1-0.1-0.2c0-0.3,0.5-2.6,0.6-2.8c0.1-0.2,0.2-0.5,0.3-0.5
				c0.2,0,0.5,0.3,1.2,0.3c0.8,0.1,1.8,0.1,2.1,0.1h8.5c1.7,0,2.5-0.3,2.7-0.3c0.1,0,0.1,0.2,0.1,0.3c0,0.8-0.1,2.7-0.1,3
				c0,0.2-0.1,0.4-0.2,0.4c-0.1,0-0.2-0.1-0.2-0.5l0-0.3c-0.1-0.8-0.7-1.4-3.3-1.5l-2.6-0.1V65.2z"/>
			<path class="st8" d="M214.1,60.4c0-4.2,0-5-0.1-5.9c-0.1-0.9-0.3-1.4-1.2-1.5c-0.2-0.1-0.7-0.1-0.9-0.1c-0.1,0-0.2-0.1-0.2-0.2
				c0-0.2,0.1-0.2,0.4-0.2c1.2,0,2.9,0.1,3.1,0.1c0.2,0,5.6,0,6.2,0c0.5,0,0.9-0.1,1.2-0.1c0.1,0,0.2-0.1,0.4-0.1
				c0.1,0,0.1,0.1,0.1,0.2c0,0.2-0.1,0.5-0.2,1.3c0,0.3-0.1,1.5-0.1,1.8c0,0.1-0.1,0.3-0.2,0.3c-0.2,0-0.2-0.1-0.2-0.4
				c0-0.2,0-0.7-0.2-1c-0.2-0.4-0.5-0.8-1.9-0.9c-0.5-0.1-3.4-0.1-3.7-0.1c-0.1,0-0.2,0.1-0.2,0.3v7.5c0,0.2,0,0.3,0.2,0.3
				c0.4,0,3.7,0,4.3-0.1c0.7-0.1,1-0.1,1.3-0.4c0.2-0.2,0.3-0.4,0.4-0.4c0.1,0,0.1,0.1,0.1,0.2c0,0.2-0.1,0.6-0.2,1.5
				c-0.1,0.5-0.1,1.5-0.1,1.7c0,0.2,0,0.5-0.2,0.5c-0.1,0-0.2-0.1-0.2-0.2c0-0.3,0-0.5-0.1-0.9c-0.1-0.4-0.4-0.8-1.4-0.9
				c-0.7-0.1-3.4-0.1-3.9-0.1c-0.1,0-0.2,0.1-0.2,0.2v2.4c0,0.9,0,4.1,0,4.6c0.1,1.9,0.5,2.2,3.1,2.2c0.7,0,1.9,0,2.6-0.3
				c0.7-0.3,1-0.8,1.2-2c0.1-0.3,0.1-0.4,0.2-0.4c0.2,0,0.2,0.2,0.2,0.4c0,0.2-0.2,2.1-0.4,2.6c-0.2,0.7-0.4,0.7-1.5,0.7
				c-4.1,0-5.9-0.2-6.7-0.2c-0.1,0-1.8,0.1-2.7,0.1c-0.3,0-0.4-0.1-0.4-0.2c0-0.1,0.1-0.2,0.2-0.2c0.2,0,0.6-0.1,0.8-0.1
				c0.5-0.1,0.7-0.7,0.8-1.5c0.1-1.1,0.1-3.3,0.1-5.9V60.4z"/>
			<path class="st8" d="M244.3,66.1c0-2.2-0.1-2.5-1.2-2.8c-0.2-0.1-0.7-0.1-0.9-0.1c-0.1,0-0.2-0.1-0.2-0.2c0-0.2,0.1-0.2,0.4-0.2
				c1.2,0,2.9,0.1,3.1,0.1c0.1,0,1.8-0.1,2.7-0.1c0.3,0,0.4,0.1,0.4,0.2c0,0.1-0.1,0.2-0.2,0.2c-0.2,0-0.4,0-0.7,0.1
				c-0.7,0.1-1,0.6-1,1.5c-0.1,0.9-0.1,1.7-0.1,2.8v3c0,1.2,0,1.3-0.4,1.5c-1.7,0.9-4.2,1.2-5.8,1.2c-2.1,0-5.9-0.3-8.9-2.9
				c-1.7-1.4-3.2-4.3-3.2-7.7c0-4.3,2.1-7.4,4.5-8.9c2.4-1.5,5.1-1.7,7.2-1.7c1.7,0,3.6,0.4,4.2,0.5c0.6,0.1,1.5,0.2,2.2,0.3
				c0.3,0,0.3,0.1,0.3,0.2c0,0.4-0.2,1.1-0.2,3.9c0,0.4-0.1,0.6-0.2,0.6c-0.1,0-0.2-0.2-0.2-0.4c0-0.4-0.2-1.1-0.6-1.8
				c-0.7-1-2.9-2.2-6.4-2.2c-1.7,0-3.7,0.2-5.8,1.8c-1.6,1.2-2.7,3.7-2.7,6.9c0,3.8,1.9,6.6,2.9,7.5c2.1,2.1,4.6,2.9,7.1,2.9
				c1,0,2.4-0.2,3.1-0.6c0.4-0.2,0.5-0.5,0.5-0.9V66.1z"/>
			<path class="st8" d="M257.8,65.2c0,2.6,0,4.7,0.1,5.9c0.1,0.8,0.2,1.4,1.1,1.5c0.4,0.1,1,0.1,1.2,0.1c0.2,0,0.2,0.1,0.2,0.2
				c0,0.1-0.1,0.2-0.4,0.2c-1.5,0-3.2-0.1-3.3-0.1s-1.8,0.1-2.7,0.1c-0.3,0-0.4-0.1-0.4-0.2c0-0.1,0.1-0.2,0.2-0.2
				c0.2,0,0.6-0.1,0.8-0.1c0.5-0.1,0.7-0.7,0.8-1.5c0.1-1.1,0.1-3.3,0.1-5.9v-4.8c0-4.2,0-5-0.1-5.9c-0.1-0.9-0.3-1.4-0.9-1.5
				c-0.3-0.1-0.7-0.1-0.8-0.1c-0.1,0-0.2-0.1-0.2-0.2c0-0.2,0.1-0.2,0.4-0.2c0.9,0,2.6,0.1,2.7,0.1s1.8-0.1,2.7-0.1
				c0.3,0,0.4,0.1,0.4,0.2c0,0.1-0.1,0.2-0.2,0.2c-0.2,0-0.4,0-0.7,0.1c-0.7,0.1-0.9,0.6-1,1.5c-0.1,0.9-0.1,1.6-0.1,5.9V65.2z"/>
			<path class="st8" d="M268.2,60.4c0-4.2,0-5-0.1-5.9c-0.1-0.9-0.3-1.4-1.2-1.5c-0.2-0.1-0.7-0.1-0.9-0.1c-0.1,0-0.2-0.1-0.2-0.2
				c0-0.2,0.1-0.2,0.4-0.2c1.2,0,2.9,0.1,3.1,0.1c0.3,0,2-0.1,3.7-0.1c2.7,0,7.7-0.2,10.9,3.1c1.4,1.4,2.6,3.7,2.6,6.9
				c0,3.4-1.4,6.1-2.9,7.7c-1.2,1.2-3.6,3.1-8.2,3.1c-2.3,0-5.8-0.3-6-0.3c-0.1,0-1.8,0.1-2.7,0.1c-0.3,0-0.4-0.1-0.4-0.2
				c0-0.1,0.1-0.2,0.2-0.2c0.2,0,0.6-0.1,0.8-0.1c0.5-0.1,0.7-0.7,0.8-1.5c0.1-1.1,0.1-3.3,0.1-5.9V60.4z M270.5,63.3
				c0,2.9,0,5.4,0.1,5.9c0,0.7,0.1,1.8,0.3,2.1c0.4,0.5,1.4,1.1,4.6,1.1c2.5,0,4.9-0.9,6.5-2.5c1.4-1.4,2.2-4,2.2-6.5
				c0-3.4-1.5-5.7-2.6-6.8c-2.6-2.7-5.6-3.1-8.9-3.1c-0.5,0-1.5,0.1-1.8,0.2c-0.2,0.1-0.3,0.2-0.3,0.5c0,0.9,0,3.7,0,5.8V63.3z"/>
			<path class="st8" d="M295.9,65.2c0,2.6,0,4.7,0.1,5.9c0.1,0.8,0.2,1.4,1.1,1.5c0.4,0.1,1,0.1,1.2,0.1c0.2,0,0.2,0.1,0.2,0.2
				c0,0.1-0.1,0.2-0.4,0.2c-1.5,0-3.2-0.1-3.3-0.1s-1.8,0.1-2.7,0.1c-0.3,0-0.4-0.1-0.4-0.2c0-0.1,0.1-0.2,0.2-0.2
				c0.2,0,0.6-0.1,0.8-0.1c0.5-0.1,0.7-0.7,0.8-1.5c0.1-1.1,0.1-3.3,0.1-5.9v-4.8c0-4.2,0-5-0.1-5.9c-0.1-0.9-0.3-1.4-0.9-1.5
				c-0.3-0.1-0.7-0.1-0.8-0.1c-0.1,0-0.2-0.1-0.2-0.2c0-0.2,0.1-0.2,0.4-0.2c0.9,0,2.6,0.1,2.7,0.1s1.8-0.1,2.7-0.1
				c0.3,0,0.4,0.1,0.4,0.2c0,0.1-0.1,0.2-0.2,0.2c-0.2,0-0.4,0-0.7,0.1c-0.7,0.1-0.9,0.6-1,1.5c-0.1,0.9-0.1,1.6-0.1,5.9V65.2z"/>
			<path class="st8" d="M313.2,52.2c6.1,0,10.7,3.9,10.7,10.2c0,6.1-4.3,11.1-10.8,11.1c-7.4,0-10.5-5.8-10.5-10.7
				C302.5,58.4,305.7,52.2,313.2,52.2z M313.8,72.4c2.4,0,7.5-1.4,7.5-9.3c0-6.5-4-10-8.2-10c-4.5,0-7.9,3-7.9,8.9
				C305.1,68.3,308.9,72.4,313.8,72.4z"/>
		</g>
		<path class="st8" d="M206.7,57c0.1,0,0.2-0.1,0.3-0.3c0.9-1.5,2.3-4.6,1.9-7.2c-0.1-0.5-0.2-0.6-0.7-0.7c-0.5-0.1-1.5-0.3-2.1-0.3
			c-0.1,0-0.2,0-0.3,0c-0.1,0-0.2,0.1-0.2,0.1c0,0.1,0,0.2,0.4,0.5l0,0c0.3,0.2,0.9,1.1,1.1,2.2c0.4,2.3-0.2,4.5-0.4,5.1
			C206.6,56.8,206.6,56.9,206.7,57C206.6,57,206.7,57.1,206.7,57z"/>
	</g>
</g>
</svg>
